<svg xmlns="http://www.w3.org/2000/svg" xmlns:xlink="http://www.w3.org/1999/xlink" version="1.1" id="Layer_1" x="0px" y="0px" width="71.971px" height="100px" viewBox="3.59855 -10.0 71.971 135.0" enable-background="new 0 0 71.971 100" xml:space="preserve">
<path d="M63.737,22.587H8.233c-4.286,0.01-7.798,3.28-8.196,7.464h71.892C71.538,25.868,68.027,22.597,63.737,22.587z M63.737,0.002  L8.236,0C3.686,0.009,0.005,3.688,0,8.235v16.43c1.876-2.506,4.861-4.135,8.233-4.135l55.503,0.001c3.373,0,6.357,1.628,8.232,4.131  V8.235C71.963,3.688,68.284,0.009,63.737,0.002z M62.885,3.725c0.991,0,1.794,0.805,1.794,1.795s-0.805,1.796-1.794,1.796  c-0.994,0-1.799-0.806-1.799-1.796S61.891,3.725,62.885,3.725z M9.643,13.644H6.274v-3.37h3.369V13.644L9.643,13.644z   M14.847,13.644h-3.373v-3.37h3.373V13.644z M20.051,13.644h-3.373v-3.37h3.373V13.644z M27.71,15.809  c-2.973,0-5.382-2.412-5.382-5.384c0-2.975,2.411-5.385,5.382-5.385c2.974,0,5.382,2.41,5.382,5.385  C33.092,13.397,30.687,15.809,27.71,15.809z M66.275,13.934H55.53c-0.993,0-1.794-0.804-1.794-1.794  c0-0.993,0.803-1.797,1.794-1.797h10.745c0.989,0,1.794,0.804,1.794,1.797C68.069,13.131,67.264,13.934,66.275,13.934z M27.71,6.982  c-1.898,0.004-3.435,1.539-3.441,3.442c0.006,1.897,1.542,3.437,3.441,3.438c1.898-0.002,3.438-1.539,3.441-3.438  C31.148,8.522,29.608,6.987,27.71,6.982z"/>
<g>
	<path d="M55.311,41.889l-39.136-0.004c-3.943,0.01-7.128,3.197-7.136,7.142v13.96c0.008,3.941,3.193,7.129,7.136,7.137   l39.136,0.004c3.945-0.012,7.136-3.199,7.138-7.141v-13.96C62.447,45.082,59.256,41.895,55.311,41.889z M57.18,62.986   c0,1.03-0.836,1.87-1.869,1.87H16.173c-1.03,0-1.869-0.84-1.869-1.87V49.025c0-1.029,0.839-1.867,1.869-1.867h39.138   c1.033,0,1.869,0.838,1.869,1.867V62.986z"/>
	<path d="M0,32.111v64.669h4.354v1.948c0,0.705,0.568,1.271,1.268,1.271h5.407c0.702,0,1.271-0.565,1.271-1.271v-1.948h47.374v1.948   c0,0.705,0.568,1.271,1.268,1.271h5.407c0.697,0,1.269-0.565,1.269-1.271v-1.948h4.354V32.111H0z M64.509,62.986   c0,5.077-4.116,9.196-9.198,9.198l-39.136-0.002c-5.08,0-9.195-4.117-9.195-9.196v-13.96c0-5.079,4.114-9.197,9.195-9.199   l39.136,0.002c5.08,0,9.198,4.118,9.198,9.197V62.986z"/>
</g>
<text x="0.0" y="117.5" font-size="5.0" font-weight="bold" font-family="Helvetica Neue, Helvetica, Arial-Unicode, Arial, Sans-serif" fill="#469AE0">Created by Marc Serre</text><text x="0.0" y="122.5" font-size="5.0" font-weight="bold" font-family="Helvetica Neue, Helvetica, Arial-Unicode, Arial, Sans-serif" fill="#469AE0">from the Noun Project</text></svg>
